<svg xmlns="http://www.w3.org/2000/svg" viewBox="0 0 32 32" role="img" aria-label="Rassvet">
  <rect width="32" height="32" rx="8" fill="#6366f1"/>
  <path
    fill="#fff"
    fill-rule="evenodd"
    clip-rule="evenodd"
    d="M24.56 18.17l-1.62-.54.56 1.68c.22.68-.14 1.42-.82 1.64-.77.22-1.43-.21-1.64-.82l-.56-1.68-3.34 1.12.56 1.68c.26.8-.29 1.69-1.22 1.69-.59 0-1.07-.38-1.24-.88l-.56-1.68-1.62.54c-.76.22-1.43-.21-1.64-.82-.22-.68.14-1.42.82-1.64l1.62-.54-1.08-3.22-1.62.54c-.9.26-1.71-.39-1.71-1.23 0-.54.34-1.05.88-1.23l1.62-.54-.56-1.68c-.22-.68.14-1.42.82-1.64.68-.22 1.42.14 1.64.82l.56 1.68 3.34-1.12-.56-1.68c-.27-.83.32-1.7 1.23-1.7.55 0 1.06.34 1.23.88l.56 1.68 1.62-.54c.68-.22 1.42.14 1.64.82.22.68-.14 1.42-.82 1.64l-1.62.54 1.08 3.22 1.62-.54c.83-.27 1.71.32 1.71 1.23 0 .55-.34 1.06-.89 1.23m-5.99-4.29l-3.34 1.12 1.08 3.22 3.34-1.12-1.08-3.22z"
    transform="translate(4 4) scale(0.92)"
  />
</svg>
